{
  "accessors": [
    {
      "bufferView": 3,
      "componentType": 5126,
      "count": 21012,
      "max": [
        0.8187224268913269,
        1.7445099353790283,
        0.15138624608516693
      ],
      "min": [
        -0.8187015056610107,
        -0.0034906931687146425,
        -0.16668559610843658
      ],
      "type": "VEC3"
    },
    {
      "bufferView": 3,
      "byteOffset": 252144,
      "componentType": 5126,
      "count": 21012,
      "max": [
        1.0,
        1.0,
        1.0
      ],
      "min": [
        -1.0,
        -0.9999130964279175,
        -1.0
      ],
      "type": "VEC3"
    },
    {
      "bufferView": 2,
      "componentType": 5126,
      "count": 21012,
      "max": [
        0.9998913407325745,
        0.9966378808021545
      ],
      "min": [
        0.0006557306624017656,
        0.00230252742767334
      ],
      "type": "VEC2"
    },
    {
      "bufferView": 1,
      "componentType": 5125,
      "count": 91050,
      "type": "SCALAR"
    },
    {
      "bufferView": 5,
      "componentType": 5126,
      "count": 53,
      "max": [
        1.0,
        0.999930739402771,
        0.29559439420700073,
        0.0,
        0.2650379538536072,
        1.000000238418579,
        0.9975094199180603,
        0.0,
        0.9943869709968567,
        0.998654305934906,
        1.0,
        0.0,
        0.2599012553691864,
        0.9634877443313599,
        1.5572519302368164,
        1.0
      ],
      "min": [
        -0.9999741315841675,
        -0.9999670386314392,
        -0.2855711877346039,
        0.0,
        -0.2587239146232605,
        -0.9997355937957764,
        -0.9942910671234131,
        0.0,
        -0.9940827488899231,
        -0.10390590131282806,
        0.04500589147210121,
        0.0,
        -0.3068619966506958,
        -1.5370227098464966,
        -0.07674887031316757,
        1.0
      ],
      "type": "MAT4"
    },
    {
      "bufferView": 0,
      "componentType": 5123,
      "count": 21012,
      "type": "VEC4"
    },
    {
      "bufferView": 4,
      "componentType": 5126,
      "count": 21012,
      "max": [
        1.0,
        0.4999528229236603,
        0.3210744559764862,
        0.21635398268699646
      ],
      "min": [
        0.2886432707309723,
        0.0,
        0.0,
        0.0
      ],
      "type": "VEC4"
    }
  ],
  "asset": {
    "extras": {
      "author": "SketchPunk (https://sketchfab.com/sketchpunk)",
      "license": "CC-BY-4.0 (http://creativecommons.org/licenses/by/4.0/)",
      "source": "https://sketchfab.com/3d-models/mannequin-female-5e9898a1ac2048d89fbcdfdb55f8c6b0",
      "title": "Mannequin Female"
    },
    "generator": "Sketchfab-12.65.0",
    "version": "2.0"
  },
  "bufferViews": [
    {
      "buffer": 0,
      "byteLength": 168096,
      "byteStride": 8,
      "name": "shortBufferViews",
      "target": 34962
    },
    {
      "buffer": 0,
      "byteLength": 364200,
      "byteOffset": 168096,
      "name": "floatBufferViews",
      "target": 34963
    },
    {
      "buffer": 0,
      "byteLength": 168096,
      "byteOffset": 532296,
      "byteStride": 8,
      "name": "floatBufferViews",
      "target": 34962
    },
    {
      "buffer": 0,
      "byteLength": 504288,
      "byteOffset": 700392,
      "byteStride": 12,
      "name": "floatBufferViews",
      "target": 34962
    },
    {
      "buffer": 0,
      "byteLength": 336192,
      "byteOffset": 1204680,
      "byteStride": 16,
      "name": "floatBufferViews",
      "target": 34962
    },
    {
      "buffer": 0,
      "byteLength": 3392,
      "byteOffset": 1540872,
      "name": "floatBufferViews"
    }
  ],
  "buffers": [
    {
      "byteLength": 1544264,
      "uri": "scene.bin"
    }
  ],
  "materials": [
    {
      "doubleSided": true,
      "name": "02_-_Default",
      "pbrMetallicRoughness": {
        "baseColorFactor": [
          0.8,
          0.8,
          0.8,
          1.0
        ],
        "metallicFactor": 0.0,
        "roughnessFactor": 0.292893
      }
    }
  ],
  "meshes": [
    {
      "name": "Object_0",
      "primitives": [
        {
          "attributes": {
            "JOINTS_0": 5,
            "NORMAL": 1,
            "POSITION": 0,
            "TEXCOORD_0": 2,
            "WEIGHTS_0": 6
          },
          "indices": 3,
          "material": 0,
          "mode": 4
        }
      ]
    }
  ],
  "nodes": [
    {
      "children": [
        1
      ],
      "matrix": [
        1.0,
        0.0,
        0.0,
        0.0,
        0.0,
        2.220446049250313e-16,
        -1.0,
        0.0,
        0.0,
        1.0,
        2.220446049250313e-16,
        0.0,
        0.0,
        0.0,
        0.0,
        1.0
      ],
      "name": "Sketchfab_model"
    },
    {
      "children": [
        2
      ],
      "name": "root"
    },
    {
      "children": [
        3
      ],
      "matrix": [
        1.0,
        0.0,
        0.0,
        0.0,
        0.0,
        2.220446049250313e-16,
        1.0,
        0.0,
        0.0,
        -1.0,
        2.220446049250313e-16,
        0.0,
        0.0,
        0.0,
        0.0,
        1.0
      ],
      "name": "GLTF_SceneRootNode"
    },
    {
      "children": [
        4
      ],
      "name": "Armature_55"
    },
    {
      "children": [
        5,
        7,
        6
      ],
      "name": "GLTF_created_0"
    },
    {
      "children": [
        8
      ],
      "name": "GLTF_created_0_rootJoint"
    },
    {
      "name": "Dummy_54"
    },
    {
      "mesh": 0,
      "name": "Object_7",
      "skin": 0
    },
    {
      "children": [
        9,
        52,
        56
      ],
      "name": "Hips_53",
      "rotation": [
        9.884450946628931e-08,
        0.0,
        0.0,
        1.0
      ],
      "translation": [
        1.0448328794154804e-05,
        1.0123300552368164,
        -0.028593070805072784
      ]
    },
    {
      "children": [
        10
      ],
      "name": "Spine_44",
      "rotation": [
        -0.05202349275350571,
        0.0,
        0.0,
        0.9986459016799927
      ],
      "scale": [
        1.0,
        0.9999999403953552,
        1.0
      ],
      "translation": [
        -9.094947017729282e-13,
        0.09319805353879929,
        -0.009736549109220505
      ]
    },
    {
      "children": [
        11
      ],
      "name": "Spine1_43",
      "rotation": [
        -2.2351741790771484e-08,
        0.0,
        0.0,
        1.0
      ],
      "translation": [
        -9.094947017729282e-13,
        0.1093226820230484,
        0.0
      ]
    },
    {
      "children": [
        12,
        14,
        33
      ],
      "name": "Spine2_42",
      "rotation": [
        5.587935447692871e-08,
        0.0,
        0.0,
        1.0
      ],
      "translation": [
        -9.094947017729282e-13,
        0.12494035065174103,
        -1.862645149230957e-08
      ]
    },
    {
      "children": [
        13
      ],
      "name": "Neck_3",
      "rotation": [
        0.0520235076546669,
        0.0,
        0.0,
        0.9986459016799927
      ],
      "scale": [
        1.0,
        0.9999998807907104,
        0.9999999403953552
      ],
      "translation": [
        0.0,
        0.14055794477462769,
        0.0
      ]
    },
    {
      "name": "Head_2",
      "rotation": [
        -4.431006317417996e-08,
        0.0,
        0.0,
        1.0
      ],
      "translation": [
        9.094947017729282e-13,
        0.05870209261775017,
        0.020915040746331215
      ]
    },
    {
      "children": [
        15
      ],
      "name": "LeftShoulder_22",
      "rotation": [
        0.5510494709014893,
        0.43852126598358154,
        -0.5694624185562134,
        0.42397671937942505
      ],
      "scale": [
        1.0,
        1.000000238418579,
        1.0
      ],
      "translation": [
        0.043991364538669586,
        0.12945666909217834,
        -0.0014063790440559387
      ]
    },
    {
      "children": [
        16
      ],
      "name": "LeftArm_21",
      "rotation": [
        -0.11707769334316254,
        -0.0013286164030432701,
        0.011270493268966675,
        0.993057906627655
      ],
      "translation": [
        -3.725290298461914e-09,
        0.09057524800300598,
        -1.387670636177063e-07
      ]
    },
    {
      "children": [
        17
      ],
      "name": "LeftForeArm_20",
      "rotation": [
        -0.011515782214701176,
        -0.00021293034660629928,
        0.01847858726978302,
        0.9997629523277283
      ],
      "scale": [
        1.0,
        1.0,
        0.9999999403953552
      ],
      "translation": [
        2.3283064365386963e-09,
        0.2838803231716156,
        -6.891787052154541e-08
      ]
    },
    {
      "children": [
        18,
        21,
        24,
        27,
        30
      ],
      "name": "LeftHand_19",
      "rotation": [
        0.06006466597318649,
        -0.06292770057916641,
        0.026878653094172478,
        0.9958463311195374
      ],
      "scale": [
        0.9999999403953552,
        0.9999999403953552,
        0.9999999403953552
      ],
      "translation": [
        1.4901161193847656e-08,
        0.21526862680912018,
        -1.5564728528261185e-07
      ]
    },
    {
      "children": [
        19
      ],
      "name": "LeftHandThumb1_6",
      "rotation": [
        0.09468930959701538,
        0.024913612753152847,
        0.25322893261909485,
        0.9624387621879578
      ],
      "scale": [
        1.0,
        0.9999999403953552,
        0.9999999403953552
      ],
      "translation": [
        -0.025799978524446487,
        0.035426028072834015,
        0.008650328032672405
      ]
    },
    {
      "children": [
        20
      ],
      "name": "LeftHandThumb2_5",
      "rotation": [
        -0.04179132357239723,
        -2.852338809589128e-07,
        -1.761738843697458e-07,
        0.9991263747215271
      ],
      "scale": [
        1.0,
        0.9999999403953552,
        1.0
      ],
      "translation": [
        -0.004019342362880707,
        0.035509735345840454,
        1.25030055642128e-07
      ]
    },
    {
      "name": "LeftHandThumb3_4",
      "rotation": [
        -0.042354900389909744,
        4.7167253569568857e-07,
        8.497212888869399e-08,
        0.9991025924682617
      ],
      "scale": [
        1.0,
        0.9999999403953552,
        0.9999998807907104
      ],
      "translation": [
        0.002785129938274622,
        0.03415380418300629,
        7.479684427380562e-09
      ]
    },
    {
      "children": [
        22
      ],
      "name": "LeftHandIndex1_9",
      "rotation": [
        -0.06687834113836288,
        0.00044870818965137005,
        -0.00669496227055788,
        0.9977385997772217
      ],
      "scale": [
        0.9999998807907104,
        1.0,
        0.9999998807907104
      ],
      "translation": [
        -0.029796898365020752,
        0.088202103972435,
        0.002534119412302971
      ]
    },
    {
      "children": [
        23
      ],
      "name": "LeftHandIndex2_8",
      "rotation": [
        -0.005957674700766802,
        5.855067186644192e-08,
        -1.4668590786470759e-08,
        0.9999822378158569
      ],
      "translation": [
        -3.4794211387634277e-06,
        0.0306636281311512,
        -7.264316082000732e-08
      ]
    },
    {
      "name": "LeftHandIndex3_7",
      "rotation": [
        0.017167450860142708,
        -7.223179920856637e-08,
        -1.260963955473926e-07,
        0.9998526573181152
      ],
      "scale": [
        0.9999999403953552,
        0.9999998807907104,
        1.0
      ],
      "translation": [
        -2.1357089281082153e-05,
        0.029007405042648315,
        1.8440186977386475e-07
      ]
    },
    {
      "children": [
        25
      ],
      "name": "LeftHandMiddle1_12",
      "rotation": [
        -0.123065285384655,
        0.0025184263940900564,
        -0.020305097103118896,
        0.9921876788139343
      ],
      "scale": [
        0.9999999403953552,
        0.9999999403953552,
        1.0
      ],
      "translation": [
        -0.007813025265932083,
        0.08364647626876831,
        0.002449803054332733
      ]
    },
    {
      "children": [
        26
      ],
      "name": "LeftHandMiddle2_11",
      "rotation": [
        0.06629636883735657,
        3.0422224739368176e-08,
        -5.629424038033903e-09,
        0.9977999925613403
      ],
      "scale": [
        1.0,
        1.0000001192092896,
        0.9999999403953552
      ],
      "translation": [
        -0.00010737404227256775,
        0.037533435970544815,
        4.284083843231201e-08
      ]
    },
    {
      "name": "LeftHandMiddle3_10",
      "rotation": [
        -0.03960512951016426,
        1.1209403538714469e-07,
        -9.477822260350877e-08,
        0.9992154240608215
      ],
      "translation": [
        0.00011807866394519806,
        0.03480340912938118,
        5.21540641784668e-08
      ]
    },
    {
      "children": [
        28
      ],
      "name": "LeftHandRing1_15",
      "rotation": [
        -0.10950424522161484,
        0.0034504467621445656,
        -0.03130549192428589,
        0.9934872388839722
      ],
      "scale": [
        1.0,
        0.9999999403953552,
        0.9999999403953552
      ],
      "translation": [
        0.009707532823085785,
        0.08155769109725952,
        0.0021131839603185654
      ]
    },
    {
      "children": [
        29
      ],
      "name": "LeftHandRing2_14",
      "rotation": [
        0.04224369302392006,
        1.69570270713848e-07,
        -1.7833288268320757e-07,
        0.9991074204444885
      ],
      "scale": [
        0.9999999403953552,
        0.9999998807907104,
        0.9999999403953552
      ],
      "translation": [
        -1.6218051314353943e-05,
        0.031453680247068405,
        4.0046870708465576e-07
      ]
    },
    {
      "name": "LeftHandRing3_13",
      "rotation": [
        -0.06834957003593445,
        -1.2340872501681588e-07,
        -4.0840872350678126e-10,
        0.9976614117622375
      ],
      "scale": [
        0.9999999403953552,
        0.9999998807907104,
        1.0
      ],
      "translation": [
        9.802356362342834e-05,
        0.031072653830051422,
        8.847564458847046e-09
      ]
    },
    {
      "children": [
        31
      ],
      "name": "LeftHandPinky1_18",
      "rotation": [
        -0.06595689058303833,
        0.002013411372900009,
        -0.030446719378232956,
        0.9973558187484741
      ],
      "scale": [
        1.0,
        0.9999999403953552,
        0.9999998807907104
      ],
      "translation": [
        0.027902577072381973,
        0.07564295083284378,
        0.0027038399130105972
      ]
    },
    {
      "children": [
        32
      ],
      "name": "LeftHandPinky2_17",
      "rotation": [
        0.00948948971927166,
        1.5837473199553642e-07,
        -6.091125328566704e-07,
        0.9999550580978394
      ],
      "scale": [
        0.9999999403953552,
        0.9999998807907104,
        1.0
      ],
      "translation": [
        7.847324013710022e-06,
        0.02906578965485096,
        1.7043203115463257e-07
      ]
    },
    {
      "name": "LeftHandPinky3_16",
      "rotation": [
        -0.029446419328451157,
        -7.335164298183372e-08,
        6.06954415616201e-07,
        0.9995664358139038
      ],
      "scale": [
        1.0,
        0.9999998807907104,
        0.9999999403953552
      ],
      "translation": [
        2.5433488190174103e-05,
        0.02328457683324814,
        -1.564621925354004e-07
      ]
    },
    {
      "children": [
        34
      ],
      "name": "RightShoulder_41",
      "rotation": [
        0.5544562935829163,
        -0.4358184337615967,
        0.5666425824165344,
        0.4260948598384857
      ],
      "scale": [
        0.9999997019767761,
        0.9999997019767761,
        0.9999998807907104
      ],
      "translation": [
        -0.04399138689041138,
        0.1294056922197342,
        -0.0009184777736663818
      ]
    },
    {
      "children": [
        35
      ],
      "name": "RightArm_40",
      "rotation": [
        -0.11779247224330902,
        0.0005385768599808216,
        -0.00453973887488246,
        0.9930277466773987
      ],
      "scale": [
        0.9999999403953552,
        0.9999998807907104,
        0.9999999403953552
      ],
      "translation": [
        -3.259629011154175e-09,
        0.09057529270648956,
        6.426125764846802e-08
      ]
    },
    {
      "children": [
        36
      ],
      "name": "RightForeArm_39",
      "rotation": [
        -0.011587905697524548,
        0.0002127890766132623,
        -0.018361495807766914,
        0.9997642636299133
      ],
      "scale": [
        1.0,
        1.0,
        0.9999998211860657
      ],
      "translation": [
        2.2351741790771484e-08,
        0.2838858664035797,
        -1.9650906324386597e-07
      ]
    },
    {
      "children": [
        37,
        40,
        43,
        46,
        49
      ],
      "name": "RightHand_38",
      "rotation": [
        0.060146696865558624,
        0.06794680655002594,
        -0.027892105281352997,
        0.9954836368560791
      ],
      "scale": [
        0.9999999403953552,
        0.9999999403953552,
        0.9999998807907104
      ],
      "translation": [
        2.8870999813079834e-08,
        0.21525724232196808,
        -4.0192389860749245e-08
      ]
    },
    {
      "children": [
        38
      ],
      "name": "RightHandThumb1_25",
      "rotation": [
        0.09875670820474625,
        -0.024100758135318756,
        -0.23585474491119385,
        0.9664568901062012
      ],
      "scale": [
        1.0,
        0.9999998807907104,
        0.9999999403953552
      ],
      "translation": [
        0.024169612675905228,
        0.03426074609160423,
        0.0085796182975173
      ]
    },
    {
      "children": [
        39
      ],
      "name": "RightHandThumb2_24",
      "rotation": [
        -0.04503871127963066,
        -3.169713238548866e-07,
        -5.337237780622672e-07,
        0.998985230922699
      ],
      "scale": [
        1.0,
        1.0,
        0.9999999403953552
      ],
      "translation": [
        0.004536508582532406,
        0.03393558785319328,
        -1.701992005109787e-07
      ]
    },
    {
      "name": "RightHandThumb3_23",
      "rotation": [
        -0.05165300890803337,
        2.72309733873044e-07,
        3.5291850508656353e-07,
        0.9986650943756104
      ],
      "scale": [
        0.9999998807907104,
        0.9999999403953552,
        0.9999999403953552
      ],
      "translation": [
        -0.0002713992726057768,
        0.034638188779354095,
        9.295763447880745e-08
      ]
    },
    {
      "children": [
        41
      ],
      "name": "RightHandIndex1_28",
      "rotation": [
        -0.07394042611122131,
        -0.002931350376456976,
        0.0395037941634655,
        0.9964756369590759
      ],
      "scale": [
        1.0,
        1.0,
        0.9999998807907104
      ],
      "translation": [
        0.03081674501299858,
        0.08964362740516663,
        0.0027338573709130287
      ]
    },
    {
      "children": [
        42
      ],
      "name": "RightHandIndex2_27",
      "rotation": [
        0.01400602888315916,
        1.550749573198118e-08,
        -3.7664051433239365e-08,
        0.9999018907546997
      ],
      "scale": [
        1.0,
        1.0,
        1.0000001192092896
      ],
      "translation": [
        2.072518691420555e-05,
        0.03121263161301613,
        -3.0640512704849243e-07
      ]
    },
    {
      "name": "RightHandIndex3_26",
      "rotation": [
        -0.0030064238235354424,
        -2.6764503502363368e-08,
        -4.810884846051522e-08,
        0.9999954700469971
      ],
      "translation": [
        -1.1479482054710388e-05,
        0.02839759923517704,
        1.993030309677124e-07
      ]
    },
    {
      "children": [
        44
      ],
      "name": "RightHandMiddle1_31",
      "rotation": [
        -0.11455085873603821,
        -0.002016510581597686,
        0.01748356781899929,
        0.9932615160942078
      ],
      "scale": [
        1.0,
        1.0000001192092896,
        0.9999999403953552
      ],
      "translation": [
        0.006793424487113953,
        0.08515266329050064,
        0.0021669212728738785
      ]
    },
    {
      "children": [
        45
      ],
      "name": "RightHandMiddle2_30",
      "rotation": [
        0.04728759825229645,
        1.7875194657790416e-08,
        1.0943641370886326e-07,
        0.9988813400268555
      ],
      "scale": [
        1.0,
        1.0,
        1.0000001192092896
      ],
      "translation": [
        8.942373096942902e-05,
        0.0368182398378849,
        -5.960464477539063e-08
      ]
    },
    {
      "name": "RightHandMiddle3_29",
      "rotation": [
        -0.011552688665688038,
        4.853387469694326e-09,
        -1.6409833847319533e-07,
        0.9999333024024963
      ],
      "translation": [
        -6.428360939025879e-05,
        0.03403722867369652,
        -3.413297235965729e-07
      ]
    },
    {
      "children": [
        47
      ],
      "name": "RightHandRing1_34",
      "rotation": [
        -0.14077378809452057,
        -0.004567740019410849,
        0.03210567310452461,
        0.9895105957984924
      ],
      "scale": [
        1.0,
        0.9999998807907104,
        0.9999999403953552
      ],
      "translation": [
        -0.009771034121513367,
        0.08329358696937561,
        0.0031371284276247025
      ]
    },
    {
      "children": [
        48
      ],
      "name": "RightHandRing2_33",
      "rotation": [
        0.08514389395713806,
        9.473136231008539e-08,
        1.724552589621453e-07,
        0.9963686466217041
      ],
      "scale": [
        1.0,
        0.9999999403953552,
        1.0
      ],
      "translation": [
        8.805189281702042e-05,
        0.0320090614259243,
        -7.450580596923828e-08
      ]
    },
    {
      "name": "RightHandRing3_32",
      "rotation": [
        -0.06625723093748093,
        -1.208244952977111e-07,
        1.7605762536732072e-07,
        0.9978025555610657
      ],
      "scale": [
        0.9999999403953552,
        0.9999998807907104,
        0.9999998211860657
      ],
      "translation": [
        -0.00012311432510614395,
        0.02983938157558441,
        2.123415470123291e-07
      ]
    },
    {
      "children": [
        50
      ],
      "name": "RightHandPinky1_37",
      "rotation": [
        -0.06169750168919563,
        -0.0019354060059413314,
        0.03129005804657936,
        0.9976024627685547
      ],
      "translation": [
        -0.027838971465826035,
        0.07506011426448822,
        0.0024214833974838257
      ]
    },
    {
      "children": [
        51
      ],
      "name": "RightHandPinky2_36",
      "rotation": [
        -0.006877759005874395,
        1.5079687898378324e-07,
        4.7083111098800146e-07,
        0.9999763369560242
      ],
      "scale": [
        1.0,
        0.9999999403953552,
        1.0
      ],
      "translation": [
        -2.087606117129326e-05,
        0.02807796001434326,
        2.3259781301021576e-07
      ]
    },
    {
      "name": "RightHandPinky3_35",
      "rotation": [
        -0.014250533655285835,
        -2.592032330994698e-07,
        -4.054575342138378e-08,
        0.9998984336853027
      ],
      "scale": [
        0.9999999403953552,
        1.0,
        0.9999999403953552
      ],
      "translation": [
        -2.515967935323715e-06,
        0.02290603518486023,
        -3.0314549803733826e-07
      ]
    },
    {
      "children": [
        53
      ],
      "name": "LeftUpLeg_48",
      "rotation": [
        3.111488331342116e-05,
        0.0007595214992761612,
        0.9998417496681213,
        0.017778759822249413
      ],
      "scale": [
        1.000046730041504,
        1.0,
        1.0000001192092896
      ],
      "translation": [
        0.10061190277338028,
        -0.05186212807893753,
        -0.007062442600727081
      ]
    },
    {
      "children": [
        54
      ],
      "name": "LeftLeg_47",
      "rotation": [
        -0.006656672805547714,
        -0.0002612696262076497,
        0.007944868877530098,
        0.9999462366104126
      ],
      "scale": [
        1.0,
        1.0000001192092896,
        1.0
      ],
      "translation": [
        -5.452989171317313e-09,
        0.45591092109680176,
        5.563379090745002e-09
      ]
    },
    {
      "children": [
        55
      ],
      "name": "LeftFoot_46",
      "rotation": [
        0.5020904541015625,
        -0.00709655974060297,
        0.004116295836865902,
        0.8647761940956116
      ],
      "translation": [
        1.4433680917136371e-08,
        0.4236844778060913,
        -4.361936589702964e-09
      ]
    },
    {
      "name": "LeftToeBase_45",
      "rotation": [
        0.24004991352558136,
        0.04089965671300888,
        -0.010116358287632465,
        0.9698458313941956
      ],
      "scale": [
        1.0,
        0.9999997615814209,
        1.0
      ],
      "translation": [
        6.730260793119669e-09,
        0.14945824444293976,
        -2.4097971618175507e-08
      ]
    },
    {
      "children": [
        57
      ],
      "name": "RightUpLeg_52",
      "rotation": [
        2.047816633421462e-05,
        0.0010669365292415023,
        -0.9998414516448975,
        0.017780287191271782
      ],
      "scale": [
        0.9998323321342468,
        0.9999999403953552,
        0.999998927116394
      ],
      "translation": [
        -0.10061191767454147,
        -0.05186224728822708,
        -0.0047696903347969055
      ]
    },
    {
      "children": [
        58
      ],
      "name": "RightLeg_51",
      "rotation": [
        -0.005100318230688572,
        -2.1359623133321293e-05,
        -0.007944805547595024,
        0.999955415725708
      ],
      "scale": [
        0.9999999403953552,
        1.0,
        1.0
      ],
      "translation": [
        -2.4526798370061442e-09,
        0.45591235160827637,
        2.7148416847921908e-09
      ]
    },
    {
      "children": [
        59
      ],
      "name": "RightFoot_50",
      "rotation": [
        0.5011928081512451,
        0.007381616625934839,
        -0.004276912659406662,
        0.865293562412262
      ],
      "scale": [
        1.0,
        1.0000001192092896,
        1.0000001192092896
      ],
      "translation": [
        -5.1454662752803415e-09,
        0.4236908257007599,
        6.322807166725397e-09
      ]
    },
    {
      "name": "RightToeBase_49",
      "rotation": [
        0.2415047436952591,
        -0.040936194360256195,
        0.010180304758250713,
        0.9694823622703552
      ],
      "scale": [
        0.9999999403953552,
        1.0,
        0.9999999403953552
      ],
      "translation": [
        -2.1827872842550278e-10,
        0.14862948656082153,
        -1.641456037759781e-08
      ]
    }
  ],
  "scene": 0,
  "scenes": [
    {
      "name": "Sketchfab_Scene",
      "nodes": [
        0
      ]
    }
  ],
  "skins": [
    {
      "inverseBindMatrices": 4,
      "joints": [
        5,
        8,
        9,
        10,
        11,
        12,
        13,
        14,
        15,
        16,
        17,
        18,
        19,
        20,
        21,
        22,
        23,
        24,
        25,
        26,
        27,
        28,
        29,
        30,
        31,
        32,
        33,
        34,
        35,
        36,
        37,
        38,
        39,
        40,
        41,
        42,
        43,
        44,
        45,
        46,
        47,
        48,
        49,
        50,
        51,
        52,
        53,
        54,
        55,
        56,
        57,
        58,
        59
      ],
      "skeleton": 5
    }
  ]
}
